HIERARCHY
ROOT Hips
{
  OFFSET 149.297 18.2757 122.403
  CHANNELS 6 Xposition Yposition Zposition Zrotation Xrotation Yrotation
  JOINT ToSpine
  {
    OFFSET -0.0105055 1.38907 -7.13956
    CHANNELS 3 Zrotation Xrotation Yrotation
    JOINT Spine
    {
      OFFSET 0.0105055 10 1
      CHANNELS 3 Zrotation Xrotation Yrotation
      JOINT Spine1
      {
        OFFSET 0 12 1.60637
        CHANNELS 3 Zrotation Xrotation Yrotation
        JOINT Neck
        {
          OFFSET 0 27 2.26658
          CHANNELS 3 Zrotation Xrotation Yrotation
          JOINT Head
          {
            OFFSET 0 9 2.12705
            CHANNELS 3 Zrotation Xrotation Yrotation
            End Site
            {
              OFFSET 0 11 2
            }
          }
        }
        JOINT LeftShoulder
        {
          OFFSET 8 19.6109 2.86452
          CHANNELS 3 Zrotation Xrotation Yrotation
          JOINT LeftArm
          {
            OFFSET 12 1 0.681055
            CHANNELS 3 Zrotation Xrotation Yrotation
            JOINT LeftForeArm
            {
              OFFSET 19 0 -1.52608
              CHANNELS 3 Zrotation Xrotation Yrotation
              JOINT LeftHand
              {
                OFFSET 23 0 0
                CHANNELS 3 Zrotation Xrotation Yrotation
                End Site
                {
                  OFFSET 10 0 0
                }
              }
            }
          }
        }
        JOINT RightShoulder
        {
          OFFSET -8 19.6109 2.86452
          CHANNELS 3 Zrotation Xrotation Yrotation
          JOINT RightArm
          {
            OFFSET -12 1 0.681055
            CHANNELS 3 Zrotation Xrotation Yrotation
            JOINT RightForeArm
            {
              OFFSET -19 0 -1.52608
              CHANNELS 3 Zrotation Xrotation Yrotation
              JOINT RightHand
              {
                OFFSET -23 0 0
                CHANNELS 3 Zrotation Xrotation Yrotation
                End Site
                {
                  OFFSET -10 0 0
                }
              }
            }
          }
        }
      }
    }
  }
  JOINT LeftUpLeg
  {
    OFFSET 9 -7.17245 0
    CHANNELS 3 Zrotation Xrotation Yrotation
    JOINT LeftLeg
    {
      OFFSET 0 -44.1113 0
      CHANNELS 3 Zrotation Xrotation Yrotation
      JOINT LeftFoot
      {
        OFFSET 0 -36.1829 0
        CHANNELS 3 Zrotation Xrotation Yrotation
        JOINT LeftToeBase
        {
          OFFSET 0 -4.84184 13
          CHANNELS 3 Zrotation Xrotation Yrotation
          End Site
          {
            OFFSET 0 1 6
          }
        }
      }
    }
  }
  JOINT RightUpLeg
  {
    OFFSET -9 -7.17245 0
    CHANNELS 3 Zrotation Xrotation Yrotation
    JOINT RightLeg
    {
      OFFSET 0 -44.0551 0
      CHANNELS 3 Zrotation Xrotation Yrotation
      JOINT RightFoot
      {
        OFFSET 0 -36.1469 0
        CHANNELS 3 Zrotation Xrotation Yrotation
        JOINT RightToeBase
        {
          OFFSET 0 -4.92256 13
          CHANNELS 3 Zrotation Xrotation Yrotation
          End Site
          {
            OFFSET 0 1 6
          }
        }
      }
    }
  }
}
MOTION
Frames:	17
Frame Time:	0.0333333
14.981 28.7072 107.709 78.4574 -4.58112 -83.1718 0 0 0 2.55592 18.4252 -2.02451 -13.8365 -11.7061 -0.611186 7.76001 -45.7434 2.06846 -5.48978 3.82419 2.12477 -0.394188 1.29818 -11.2086 -10.3657 -27.5444 -53.2482 15.3652 -8.65731 -118.713 -17.6387 -0.116137 0.753517 0.449184 1.5407 13.7843 -4.14305 -48.4661 23.5201 -13.4361 -3.03443 102.494 3.92638 -0.0430634 -1.25163 64.7114 -25.3982 72.0035 179.999 76.6486 176.879 6.89027 -17.3297 1.05015 0.129052 -3.49532 0.446516 -36.2678 -4.89928 -63.5419 -0.0025902 62.5653 0.504287 -15.0383 -8.38622 -1.10768 5.75386 -22.25 -4.11152 
14.6378 28.2794 107.609 78.8616 -4.86704 -83.2484 0 0 0 1.18796 17.4512 -1.57531 -11.5959 -11.4834 -0.548579 6.81999 -45.5124 2.13588 -5.90277 3.4694 2.41285 2.69543 0.897381 -11.1063 -12.4405 -36.9086 -52.987 12.1912 -6.32643 -117.024 -17.498 0.0120909 -0.0882105 -0.25299 1.30368 12.2544 -0.777615 -47.273 28.1184 -13.9411 -3.28524 102.999 4.14223 -0.055956 -1.54926 64.2118 -24.7757 72.1937 179.999 77.2561 176.257 7.17812 -16.8645 1.06283 -0.0350039 -4.75271 1.73422 -36.377 -4.52602 -63.5072 0.00146868 61.8536 1.64602 -15.4101 -9.77709 -1.32917 5.6807 -22.0372 -4.39578 
14.3409 27.908 107.51 79.1952 -5.33775 -83.0545 0 0 0 -0.186414 16.5938 -1.496 -9.83254 -10.898 -0.788569 6.12818 -46.4355 2.60688 -5.21883 3.99839 2.68545 6.55108 0.367415 -10.1049 -15.4497 -44.8549 -54.587 10.8549 -4.54351 -112.446 -15.9662 0.157103 -1.12205 0.140536 1.37767 12.4719 -2.43894 -47.3965 28.6725 -12.8357 -3.08263 103.28 4.37367 -0.0681374 -1.79836 63.4376 -24.4829 71.712 180 77.7399 175.151 5.25576 -17.3646 0.801919 -0.0418062 -3.64929 1.33382 -36.6328 -3.9302 -63.4027 -0.000404244 61.0213 2.13902 -14.9336 -11.024 -1.43291 5.78825 -22.6611 -4.90019 
13.9315 27.6074 107.462 79.2413 -5.0394 -82.9546 0 0 0 -0.491859 16.5094 -1.52504 -8.47604 -11.2548 -1.05086 5.84958 -45.9722 2.90786 -5.1217 3.7403 2.9834 11.8375 -0.241508 -9.48728 -21.0003 -50.5906 -58.3716 11.9608 -3.25102 -104.987 -14.7496 0.217497 -1.65981 0.994429 1.44008 11.8402 -1.27355 -46.8149 31.3753 -12.8349 -3.21131 103.813 5.2692 -0.071938 -1.56213 63.3201 -24.054 71.3617 179.998 78.5183 174.298 7.22696 -16.8841 1.07427 -0.026457 -4.87289 1.73625 -35.9305 -3.24139 -62.5678 -8.81027e-006 59.9413 2.54061 -11.3482 -14.2876 -1.4365 5.15613 -19.9757 -4.78379 
13.5286 27.2685 107.401 79.6555 -4.97406 -83.1561 0 0 0 -1.19202 15.5243 -1.40754 -7.2682 -10.5306 -1.10145 6.14884 -47.0287 3.46579 -5.11117 4.54227 3.36669 17.0509 -0.759468 -8.16003 -27.5792 -54.6614 -65.15 14.9815 -1.37715 -95.132 -13.2228 0.150637 -1.31864 1.18642 1.38174 10.9759 0.191424 -46.6796 33.7634 -12.6664 -3.34025 104.534 4.97411 -0.0787707 -1.80767 63.213 -23.3306 71.3794 179.999 79.1512 173.033 5.74678 -17.2684 0.873402 -0.0166751 -3.81418 1.27904 -35.4379 -3.08172 -62.0069 0.00203108 58.7606 2.68424 -11.714 -17.2485 -1.78368 5.40034 -20.8083 -4.11753 
13.137 26.965 107.372 79.759 -4.77905 -83.3026 0 0 0 -1.60119 15.3689 -1.27307 -6.40159 -11.0384 -1.14975 7.08278 -45.8917 4.13925 -5.36903 3.71473 3.93795 21.5009 -1.24524 -8.43245 -32.7594 -56.6759 -71.503 18.4813 2.20643 -83.4291 -12.237 0.301242 -2.79918 2.57913 1.60416 11.3907 -1.65616 -46.3041 33.2344 -11.9741 -3.33774 105.351 5.41233 -0.101229 -2.14404 63.1458 -22.638 71.2016 -179.998 79.6938 171.998 4.83102 -17.5363 0.745587 -0.098335 -3.25151 1.45983 -34.6348 -2.62646 -61.2939 -0.000646118 57.3406 2.54256 -11.8637 -20.662 -2.16959 5.3503 -20.8167 -4.88433 
12.788 26.7799 107.374 79.6253 -4.96743 -83.8661 0 0 0 -2.19568 15.3757 -1.02765 -5.36849 -10.969 -1.08662 5.97765 -45.4634 4.15133 -4.44385 3.97421 3.9103 23.5913 -1.61849 -9.69699 -34.7492 -58.9279 -74.9277 19.4747 6.06313 -73.3695 -11.65 0.428502 -4.2101 2.0823 1.6318 12.2717 -2.24088 -45.931 32.5977 -11.1238 -3.31467 106.387 5.43545 -0.111834 -2.35807 62.5206 -21.5472 71.3329 -179.992 80.2424 171.948 4.51149 -17.513 0.69516 -0.269136 -3.54265 2.38406 -34.4068 -2.38029 -60.267 -2.8597e-006 56.5273 2.69802 -11.3256 -24.6941 -2.4835 4.91064 -18.9798 -5.01586 
12.3596 26.6355 107.38 79.6949 -5.63332 -84.4953 0 0 0 -3.04027 15.9233 -0.976105 -5.0104 -11.8297 -1.20844 6.59853 -44.9258 4.80494 -4.41601 3.5661 4.42498 26.4573 -1.78054 -8.4635 -39.9372 -58.2726 -80.6941 20.0872 9.63559 -65.406 -10.2995 0.421951 -4.66791 2.52585 1.65708 11.9354 -0.60753 -45.1705 35.0745 -11.3005 -3.55505 107.239 5.82058 -0.129334 -2.53142 61.2555 -20.5637 71.8891 -179.999 81.0326 172.896 4.57587 -16.7798 0.675506 -0.0151049 -4.40113 1.49384 -34.8703 -2.42101 -59.6764 -0.000421775 56.0395 3.0335 -9.8803 -27.0549 -2.38521 4.55425 -17.4413 -4.97316 
11.945 26.3606 107.421 79.6974 -5.16562 -85.0554 0 0 0 -2.78875 15.3181 -1.27464 -3.65461 -10.8594 -1.57446 2.99567 -47.849 5.23273 -0.634087 5.9498 4.14585 26.0107 -1.25946 -5.24112 -42.4004 -57.6332 -86.1926 21.6369 13.0141 -60.4165 -9.97765 0.334415 -3.82802 2.48644 1.79541 13.2574 -0.831557 -45.5087 35.8255 -11.6569 -3.87984 108.159 6.51112 -0.171378 -3.01879 61.3706 -19.418 72.5424 179.998 81.5016 173.813 4.02132 -17.1125 0.603816 0.214332 -4.41278 0.363466 -33.684 -2.3055 -59.4357 0.00115568 54.7992 2.97639 -9.38683 -28.0635 -2.3509 4.47153 -17.039 -4.60266 
11.5455 26.1117 107.427 79.2558 -5.07448 -85.675 0 0 0 -3.00701 15.7134 -1.09142 -3.01151 -10.6066 -1.50057 4.26938 -47.7793 5.93626 -1.57766 5.55219 4.80567 27.4063 -1.63457 -6.93651 -38.8575 -59.3734 -82.0161 21.9893 14.3058 -58.5369 -9.9951 0.272094 -3.11042 3.65542 1.90849 12.7419 -0.604543 -45.7322 37.4814 -12.1174 -4.28697 109.197 6.67041 -0.179572 -3.07591 60.9816 -17.9463 72.3383 179.988 82.1749 173.266 2.54298 -17.6819 0.396616 0.142442 -3.83862 0.517741 -32.798 -1.90102 -58.866 0.0016963 53.5868 2.52885 -8.78545 -28.5857 -2.24337 4.22193 -16.0086 -4.9913 
11.1574 25.9271 107.584 80.1668 -6.18471 -86.2535 0 0 0 -2.57705 14.0588 -1.33137 -4.53753 -9.58756 -1.4688 4.47239 -48.6399 6.51622 -1.20088 6.56103 5.11156 28.3389 -1.88092 -7.90542 -34.4828 -60.7127 -76.8068 20.5101 13.5705 -57.9025 -10.9475 0.230674 -2.42609 3.76412 1.81509 11.8214 1.78887 -44.881 40.8533 -13.0994 -4.91308 110.206 7.29375 -0.227588 -3.57049 59.2481 -17.2046 72.9159 -179.997 83.0583 171.809 2.61358 -17.3302 0.396951 -0.0497582 -5.32638 2.0337 -33.8271 -2.98989 -59.1176 -0.00161692 52.7805 2.14419 -7.62782 -27.6051 -1.87626 4.24176 -16.1285 -5.47776 
10.962 25.8366 108.078 83.9762 -10.3697 -86.6348 0 0 0 -2.73056 8.51719 -2.18902 -9.09922 -7.72168 -1.55041 4.31783 -48.325 7.02329 -0.653248 6.13398 5.44549 27.8935 -1.91186 -8.36687 -29.6577 -60.8994 -71.849 22.6369 14.4608 -59.086 -11.5966 0.142195 -1.40126 3.43041 1.64274 10.7529 5.43154 -43.3673 44.9802 -14.691 -5.67465 110.664 7.7231 -0.272252 -4.03148 54.1221 -18.9219 75.3395 -179.996 84.4221 171.033 3.95118 -17.0306 0.592206 0.0972656 -7.24906 2.08882 -39.7237 -6.61902 -61.7563 -0.00992623 53.6859 2.2531 -7.40654 -26.0907 -1.71862 4.6024 -17.7976 -5.88932 
10.4285 25.893 108.402 83.9869 -11.05 -86.9518 0 0 0 -3.02006 8.55168 -2.54119 -8.74524 -6.72126 -1.8598 5.33019 -51.711 8.34852 -0.300292 8.96795 6.01164 28.4882 -1.72492 -6.86367 -29.8924 -61.1446 -70.9206 22.8567 14.1896 -59.8206 -11.2409 0.195869 -2.01076 4.40559 1.79452 10.936 3.38067 -45.968 45.3312 -12.662 -5.05257 111.406 8.26584 -0.310338 -4.2935 52.244 -18.4246 74.455 179.983 85.7573 169.77 3.78354 -17.533 0.584203 0.358271 -5.49949 0.0292018 -39.773 -6.64223 -61.3632 0.0385839 51.739 2.06426 -7.63046 -25.0985 -1.69835 4.56195 -17.5653 -5.57901 
9.74709 26.2346 108.426 81.1683 -7.67458 -88.9892 0 0 0 -2.53016 15.3164 -1.75291 -4.71328 -10.7962 -1.86706 8.28479 -51.6034 10.0354 -1.51241 9.50111 7.20714 28.9123 -1.8366 -7.31319 -27.0242 -61.0556 -66.2922 20.635 12.0479 -61.0009 -11.8696 0.0745693 -0.707304 6.25831 2.1656 11.9125 2.19419 -45.819 45.8281 -13.0157 -5.50513 112.539 8.86508 -0.332194 -4.28763 55.4255 -14.629 73.0456 -179.974 86.6024 167.453 3.88333 -16.6048 0.565935 0.296309 -6.56229 0.707741 -33.7115 -5.74714 -56.3118 -0.0164505 48.1754 -0.400576 -8.30716 -23.0905 -1.70226 4.73311 -18.3684 -5.83801 
9.17642 26.5731 108.994 81.8493 -8.59638 -89.2946 0 0 0 -2.44652 14.4552 -1.7508 -4.40819 -9.83647 -1.78379 4.52881 -51.079 8.77969 0.0836266 7.97625 6.46647 25.6551 -1.72427 -8.73398 -23.4234 -62.2147 -62.8748 19.7437 10.4562 -63.1765 -10.9979 0.0363244 -0.386487 5.70181 2.17528 12.5035 1.11016 -45.8188 45.8596 -13.0816 -5.69981 113.142 9.57453 -0.359527 -4.28726 53.3907 -15.1451 72.8947 -179.983 87.8784 166.81 4.60459 -16.1469 0.654212 0.274073 -8.27973 1.60734 -34.5763 -7.29427 -54.8392 -0.00021183 47.2846 -1.94552 -7.40857 -20.1754 -1.31955 5.03182 -19.7224 -5.96862 
8.3345 27.0893 109.689 82.5366 -8.89796 -89.5346 0 0 0 -1.83789 15.4693 -2.0881 -3.93127 -11.2141 -2.10774 2.85929 -49.4365 8.2933 0.602912 6.20793 6.35531 23.5853 -1.66131 -10.0135 -19.3363 -63.2167 -56.4603 20.2285 8.49543 -68.1539 -11.7872 -0.0699052 0.674483 6.59165 2.41699 13.3165 -0.837316 -45.6171 46.0882 -12.9797 -5.94027 114.18 9.66967 -0.437031 -5.16954 51.8753 -15.8528 72.5372 179.976 89.1961 166.169 3.41301 -16.2242 0.486414 0.28219 -6.86604 0.933322 -35.0627 -8.8377 -53.8297 -0.00290018 46.4128 -2.77604 -6.38386 -16.3215 -0.921449 5.01182 -19.7298 -6.35563 
7.29791 27.6634 110.647 83.3359 -9.04785 -89.3017 0 0 0 -1.03626 15.4669 -1.94831 -3.28386 -10.5336 -1.85769 3.81884 -50.8232 8.91415 -0.823284 7.60531 6.97683 23.7016 -1.73793 -10.536 -18.7113 -64.6663 -52.2628 20.0641 6.44144 -72.925 -12.2428 -0.13984 1.30684 6.41969 2.07621 11.1034 0.384749 -45.7081 48.5667 -13.8644 -6.72706 115.389 9.60319 -0.510624 -6.07171 50.0966 -17.147 71.8268 -0.00977259 89.1557 -14.7568 3.35884 -16.654 0.491683 0.209703 -5.71317 0.859826 -36.1996 -9.84033 -54.5907 -0.00075191 45.8724 -2.1357 -5.29319 -12.3503 -0.565146 4.64672 -18.066 -6.29492 
